<svg width="18" height="18" viewBox="0 0 18 18" fill="none" xmlns="http://www.w3.org/2000/svg">
<path d="M7.28485 4.71429L5.57057 4.71686C5.34324 4.71686 5.12522 4.80716 4.96448 4.96791C4.80373 5.12865 4.71342 5.34667 4.71342 5.574V7.28571C4.71348 7.49579 4.79067 7.69853 4.93036 7.85544C5.07004 8.01234 5.26248 8.11249 5.47114 8.13686L5.57228 8.14286L7.28657 8.14029C7.51375 8.14006 7.73155 8.04965 7.89211 7.88893C8.05267 7.72821 8.14285 7.51032 8.14285 7.28314V5.57229C8.14301 5.36206 8.06591 5.15911 7.92621 5.00203C7.7865 4.84494 7.59394 4.74467 7.38514 4.72029L7.28485 4.71429ZM12.4277 4.71429L10.7134 4.71686C10.4861 4.71686 10.2681 4.80716 10.1073 4.96791C9.94659 5.12865 9.85628 5.34667 9.85628 5.574V7.28571C9.85633 7.49579 9.93353 7.69853 10.0732 7.85544C10.2129 8.01234 10.4053 8.11249 10.614 8.13686L10.7151 8.14286L12.4294 8.14029C12.6566 8.14006 12.8744 8.04965 13.035 7.88893C13.1955 7.72821 13.2857 7.51032 13.2857 7.28314V5.57229C13.2859 5.36206 13.2088 5.15911 13.0691 5.00203C12.9294 4.84494 12.7368 4.74467 12.528 4.72029L12.4277 4.71429ZM7.28485 9.85714L5.57057 9.85971C5.34324 9.85971 5.12522 9.95002 4.96448 10.1108C4.80373 10.2715 4.71342 10.4895 4.71342 10.7169V12.4286C4.71348 12.6386 4.79067 12.8414 4.93036 12.9983C5.07004 13.1552 5.26248 13.2553 5.47114 13.2797L5.57228 13.2857L7.28657 13.2831C7.51375 13.2829 7.73155 13.1925 7.89211 13.0318C8.05267 12.8711 8.14285 12.6532 8.14285 12.426V10.7151C8.14301 10.5049 8.06591 10.302 7.92621 10.1449C7.7865 9.9878 7.59394 9.88753 7.38514 9.86314L7.28485 9.85714ZM12.4277 9.85714L10.7134 9.85971C10.4861 9.85971 10.2681 9.95002 10.1073 10.1108C9.94659 10.2715 9.85628 10.4895 9.85628 10.7169V12.4286C9.85633 12.6386 9.93353 12.8414 10.0732 12.9983C10.2129 13.1552 10.4053 13.2553 10.614 13.2797L10.7151 13.2857L12.4294 13.2831C12.6566 13.2829 12.8744 13.1925 13.035 13.0318C13.1955 12.8711 13.2857 12.6532 13.2857 12.426V10.7151C13.2859 10.5049 13.2088 10.302 13.0691 10.1449C12.9294 9.9878 12.7368 9.88753 12.528 9.86314L12.4277 9.85714Z" stroke="#333333" stroke-linecap="round" stroke-linejoin="round"/>
</svg>
