<svg width="24" height="24" viewBox="0 0 24 24" fill="none" xmlns="http://www.w3.org/2000/svg">
<path d="M9.71315 6.28571L7.42743 6.28914C7.12433 6.28914 6.83364 6.40955 6.61931 6.62388C6.40498 6.83821 6.28458 7.1289 6.28458 7.432V9.71429C6.28465 9.99438 6.38758 10.2647 6.57382 10.4739C6.76007 10.6831 7.01665 10.8167 7.29486 10.8491L7.42972 10.8571L9.71543 10.8537C10.0183 10.8534 10.3087 10.7329 10.5228 10.5186C10.7369 10.3043 10.8571 10.0138 10.8571 9.71086V7.42971C10.8574 7.14942 10.7546 6.87882 10.5683 6.66937C10.382 6.45992 10.1253 6.32623 9.84686 6.29371L9.71315 6.28571ZM16.5703 6.28571L14.2846 6.28914C13.9815 6.28914 13.6908 6.40955 13.4765 6.62388C13.2621 6.83821 13.1417 7.1289 13.1417 7.432V9.71429C13.1418 9.99438 13.2447 10.2647 13.431 10.4739C13.6172 10.6831 13.8738 10.8167 14.152 10.8491L14.2869 10.8571L16.5726 10.8537C16.8755 10.8534 17.1659 10.7329 17.38 10.5186C17.594 10.3043 17.7143 10.0138 17.7143 9.71086V7.42971C17.7145 7.14942 17.6117 6.87882 17.4254 6.66937C17.2392 6.45992 16.9824 6.32623 16.704 6.29371L16.5703 6.28571ZM9.71315 13.1429L7.42743 13.1463C7.12433 13.1463 6.83364 13.2667 6.61931 13.481C6.40498 13.6953 6.28458 13.986 6.28458 14.2891V16.5714C6.28465 16.8515 6.38758 17.1218 6.57382 17.3311C6.76007 17.5403 7.01665 17.6738 7.29486 17.7063L7.42972 17.7143L9.71543 17.7109C10.0183 17.7106 10.3087 17.59 10.5228 17.3757C10.7369 17.1614 10.8571 16.8709 10.8571 16.568V14.2869C10.8574 14.0066 10.7546 13.736 10.5683 13.5265C10.382 13.3171 10.1253 13.1834 9.84686 13.1509L9.71315 13.1429ZM16.5703 13.1429L14.2846 13.1463C13.9815 13.1463 13.6908 13.2667 13.4765 13.481C13.2621 13.6953 13.1417 13.986 13.1417 14.2891V16.5714C13.1418 16.8515 13.2447 17.1218 13.431 17.3311C13.6172 17.5403 13.8738 17.6738 14.152 17.7063L14.2869 17.7143L16.5726 17.7109C16.8755 17.7106 17.1659 17.59 17.38 17.3757C17.594 17.1614 17.7143 16.8709 17.7143 16.568V14.2869C17.7145 14.0066 17.6117 13.736 17.4254 13.5265C17.2392 13.3171 16.9824 13.1834 16.704 13.1509L16.5703 13.1429Z" stroke="#333333" stroke-linecap="round" stroke-linejoin="round"/>
</svg>
