<svg width="20" height="20" viewBox="0 0 20 20" fill="none" xmlns="http://www.w3.org/2000/svg">
<path d="M11.0593 4.44444C11.3054 4.44451 11.5453 4.52202 11.745 4.666C11.9446 4.80998 12.0939 5.01313 12.1717 5.24667L12.4901 6.2037H14.4136C14.5691 6.2037 14.7183 6.26549 14.8283 6.37546C14.9382 6.48544 15 6.6346 15 6.79012C15 6.94565 14.9382 7.09481 14.8283 7.20478C14.7183 7.31476 14.5691 7.37654 14.4136 7.37654L14.4118 7.41818L13.9034 14.5391C13.8717 14.9828 13.673 15.398 13.3475 15.7011C13.022 16.0042 12.5937 16.1728 12.1488 16.1728H7.29563C6.85081 16.1728 6.42252 16.0042 6.09697 15.7011C5.77142 15.398 5.57279 14.9828 5.54106 14.5391L5.03264 7.41759L5.03088 7.37654C4.87535 7.37654 4.72619 7.31476 4.61622 7.20478C4.50624 7.09481 4.44446 6.94565 4.44446 6.79012C4.44446 6.6346 4.50624 6.48544 4.61622 6.37546C4.72619 6.26549 4.87535 6.2037 5.03088 6.2037H6.95433L7.27276 5.24667C7.35058 5.01303 7.49996 4.80981 7.69973 4.66583C7.8995 4.52184 8.13953 4.44439 8.38579 4.44444H11.0593ZM13.239 7.37654H6.20548L6.71097 14.4552C6.7215 14.6031 6.78766 14.7415 6.89614 14.8426C7.00462 14.9437 7.14736 14.9999 7.29563 15H12.1488C12.2971 14.9999 12.4399 14.9437 12.5483 14.8426C12.6568 14.7415 12.723 14.6031 12.7335 14.4552L13.239 7.37654ZM8.5494 9.1358C8.69303 9.13582 8.83166 9.18855 8.939 9.284C9.04633 9.37945 9.11491 9.51096 9.13171 9.65361L9.13582 9.72222V12.6543C9.13565 12.8038 9.07842 12.9475 8.97581 13.0562C8.87321 13.1649 8.73297 13.2303 8.58376 13.2391C8.43455 13.2478 8.28763 13.1993 8.17301 13.1034C8.0584 13.0074 7.98473 12.8714 7.96708 12.7229L7.96298 12.6543V9.72222C7.96298 9.56669 8.02476 9.41754 8.13474 9.30756C8.24471 9.19759 8.39387 9.1358 8.5494 9.1358ZM10.8951 9.1358C11.0506 9.1358 11.1998 9.19759 11.3097 9.30756C11.4197 9.41754 11.4815 9.56669 11.4815 9.72222V12.6543C11.4815 12.8098 11.4197 12.959 11.3097 13.069C11.1998 13.179 11.0506 13.2407 10.8951 13.2407C10.7395 13.2407 10.5904 13.179 10.4804 13.069C10.3704 12.959 10.3087 12.8098 10.3087 12.6543V9.72222C10.3087 9.56669 10.3704 9.41754 10.4804 9.30756C10.5904 9.19759 10.7395 9.1358 10.8951 9.1358ZM11.0593 5.61728H8.3852L8.18992 6.2037H11.2546L11.0593 5.61728Z" fill="#333333"/>
</svg>
