<svg width="18" height="18" viewBox="0 0 18 18" fill="none" xmlns="http://www.w3.org/2000/svg">
<path d="M9.95333 4C10.1749 4.00006 10.3908 4.06982 10.5705 4.1994C10.7502 4.32898 10.8845 4.51181 10.9545 4.722L11.2411 5.58333H12.9722C13.1122 5.58333 13.2464 5.63894 13.3454 5.73792C13.4444 5.83689 13.5 5.97114 13.5 6.11111C13.5 6.25109 13.4444 6.38533 13.3454 6.48431C13.2464 6.58328 13.1122 6.63889 12.9722 6.63889L12.9706 6.67636L12.5131 13.0852C12.4845 13.4845 12.3057 13.8582 12.0127 14.131C11.7197 14.4038 11.3343 14.5555 10.9339 14.5556H6.56606C6.16571 14.5555 5.78025 14.4038 5.48726 14.131C5.19427 13.8582 5.0155 13.4845 4.98694 13.0852L4.52936 6.67583L4.52778 6.63889C4.3878 6.63889 4.25356 6.58328 4.15458 6.48431C4.0556 6.38533 4 6.25109 4 6.11111C4 5.97114 4.0556 5.83689 4.15458 5.73792C4.25356 5.63894 4.3878 5.58333 4.52778 5.58333H6.25889L6.54547 4.722C6.61551 4.51173 6.74995 4.32883 6.92975 4.19924C7.10954 4.06966 7.32557 3.99995 7.54719 4H9.95333ZM11.9151 6.63889H5.58492L6.03986 13.0097C6.04934 13.1428 6.10888 13.2674 6.20651 13.3584C6.30414 13.4493 6.43261 13.4999 6.56606 13.5H10.9339C11.0674 13.4999 11.1959 13.4493 11.2935 13.3584C11.3911 13.2674 11.4507 13.1428 11.4601 13.0097L11.9151 6.63889ZM7.69444 8.22222C7.82371 8.22224 7.94848 8.2697 8.04509 8.3556C8.14169 8.4415 8.2034 8.55987 8.21853 8.68825L8.22222 8.75V11.3889C8.22207 11.5234 8.17056 11.6528 8.07822 11.7506C7.98587 11.8484 7.85966 11.9073 7.72538 11.9152C7.59109 11.9231 7.45886 11.8794 7.3557 11.793C7.25254 11.7067 7.18625 11.5842 7.17036 11.4506L7.16667 11.3889V8.75C7.16667 8.61002 7.22227 8.47578 7.32125 8.3768C7.42023 8.27783 7.55447 8.22222 7.69444 8.22222ZM9.80556 8.22222C9.94553 8.22222 10.0798 8.27783 10.1788 8.3768C10.2777 8.47578 10.3333 8.61002 10.3333 8.75V11.3889C10.3333 11.5289 10.2777 11.6631 10.1788 11.7621C10.0798 11.8611 9.94553 11.9167 9.80556 11.9167C9.66558 11.9167 9.53134 11.8611 9.43236 11.7621C9.33338 11.6631 9.27778 11.5289 9.27778 11.3889V8.75C9.27778 8.61002 9.33338 8.47578 9.43236 8.3768C9.53134 8.27783 9.66558 8.22222 9.80556 8.22222ZM9.95333 5.05556H7.54667L7.37092 5.58333H10.1291L9.95333 5.05556Z" fill="#333333"/>
</svg>
