<svg width="18" height="18" viewBox="0 0 18 18" fill="none" xmlns="http://www.w3.org/2000/svg">
<path fill-rule="evenodd" clip-rule="evenodd" d="M5.06501 5.66833C5.13776 5.66224 5.21099 5.67055 5.28052 5.69278C5.35005 5.71501 5.41452 5.75072 5.47024 5.79788C5.52596 5.84504 5.57185 5.90271 5.60527 5.96761C5.63869 6.03251 5.65899 6.10336 5.66501 6.17611L6.13668 11.8694C6.15968 12.1473 6.28629 12.4063 6.4914 12.5952C6.6965 12.784 6.9651 12.8889 7.2439 12.8889H10.7561C11.0349 12.8889 11.3035 12.784 11.5086 12.5952C11.7137 12.4063 11.8403 12.1473 11.8633 11.8694L12.3356 6.17611C12.3492 6.03036 12.4197 5.89586 12.532 5.80186C12.6442 5.70785 12.789 5.66193 12.9348 5.67409C13.0807 5.68624 13.2159 5.75547 13.311 5.86675C13.4061 5.97802 13.4535 6.12234 13.4428 6.26833L12.9706 11.9611C12.9246 12.5167 12.6714 13.0347 12.2613 13.4124C11.8512 13.7901 11.3142 13.9998 10.7567 14H7.24446C6.68676 14.0001 6.14942 13.7905 5.7391 13.4128C5.32877 13.0351 5.07547 12.5169 5.02946 11.9611L4.55723 6.26833C4.55115 6.19559 4.55945 6.12236 4.58168 6.05283C4.60391 5.98329 4.63962 5.91882 4.68678 5.8631C4.73394 5.80738 4.79161 5.7615 4.85651 5.72808C4.92141 5.69466 4.99226 5.67436 5.06501 5.66833Z" fill="#333333"/>
<path fill-rule="evenodd" clip-rule="evenodd" d="M4 6.22222C4 6.07488 4.05853 5.93357 4.16272 5.82939C4.26691 5.7252 4.40821 5.66667 4.55556 5.66667H13.4444C13.5918 5.66667 13.7331 5.7252 13.8373 5.82939C13.9415 5.93357 14 6.07488 14 6.22222C14 6.36956 13.9415 6.51087 13.8373 6.61506C13.7331 6.71925 13.5918 6.77778 13.4444 6.77778H4.55556C4.40821 6.77778 4.26691 6.71925 4.16272 6.61506C4.05853 6.51087 4 6.36956 4 6.22222ZM7.88889 7.33333C8.03623 7.33333 8.17754 7.39186 8.28173 7.49605C8.38591 7.60024 8.44444 7.74155 8.44444 7.88889V11.2222C8.44444 11.3696 8.38591 11.5109 8.28173 11.6151C8.17754 11.7192 8.03623 11.7778 7.88889 11.7778C7.74155 11.7778 7.60024 11.7192 7.49605 11.6151C7.39187 11.5109 7.33333 11.3696 7.33333 11.2222V7.88889C7.33333 7.74155 7.39187 7.60024 7.49605 7.49605C7.60024 7.39186 7.74155 7.33333 7.88889 7.33333ZM10.1111 7.33333C10.2585 7.33333 10.3998 7.39186 10.5039 7.49605C10.6081 7.60024 10.6667 7.74155 10.6667 7.88889V10.1111C10.6667 10.2585 10.6081 10.3998 10.5039 10.5039C10.3998 10.6081 10.2585 10.6667 10.1111 10.6667C9.96377 10.6667 9.82246 10.6081 9.71827 10.5039C9.61409 10.3998 9.55556 10.2585 9.55556 10.1111V7.88889C9.55556 7.74155 9.61409 7.60024 9.71827 7.49605C9.82246 7.39186 9.96377 7.33333 10.1111 7.33333Z" fill="#333333"/>
<path fill-rule="evenodd" clip-rule="evenodd" d="M8.1339 5.11111C8.01735 5.1112 7.90378 5.14794 7.80926 5.21614C7.71474 5.28434 7.64406 5.38053 7.60723 5.49111L7.30501 6.39778C7.25845 6.53761 7.15825 6.65321 7.02646 6.71916C6.89466 6.78511 6.74206 6.796 6.60223 6.74944C6.46241 6.70288 6.3468 6.60268 6.28085 6.47089C6.2149 6.33909 6.20401 6.18649 6.25057 6.04667L6.55279 5.13944C6.66344 4.80763 6.87567 4.51903 7.15944 4.31453C7.44321 4.11003 7.78412 3.99999 8.1339 4H9.86557C10.2153 3.99999 10.5563 4.11003 10.84 4.31453C11.1238 4.51903 11.336 4.80763 11.4467 5.13944L11.7495 6.04667C11.7725 6.1159 11.7817 6.189 11.7765 6.26179C11.7713 6.33458 11.7518 6.40563 11.7192 6.47089C11.6865 6.53615 11.6413 6.59434 11.5862 6.64213C11.531 6.68992 11.467 6.72639 11.3978 6.74944C11.3286 6.7725 11.2555 6.78169 11.1827 6.77649C11.1099 6.7713 11.0388 6.75182 10.9736 6.71916C10.8418 6.65321 10.7416 6.53761 10.695 6.39778L10.3928 5.49111C10.356 5.38062 10.2854 5.28449 10.191 5.2163C10.0966 5.14811 9.98314 5.11132 9.86668 5.11111H8.13501H8.1339Z" fill="#333333"/>
</svg>
