<svg width="18" height="18" viewBox="0 0 18 18" fill="none" xmlns="http://www.w3.org/2000/svg">
<path fill-rule="evenodd" clip-rule="evenodd" d="M4.278 5.002C4.36529 4.99469 4.45317 5.00466 4.53661 5.03133C4.62005 5.05801 4.69741 5.10087 4.76428 5.15745C4.83114 5.21404 4.8862 5.28326 4.92631 5.36113C4.96641 5.43901 4.99077 5.52403 4.998 5.61133L5.564 12.4433C5.5916 12.7768 5.74354 13.0876 5.98966 13.3142C6.23579 13.5408 6.55811 13.6666 6.89267 13.6667H11.1073C11.4419 13.6666 11.7642 13.5408 12.0103 13.3142C12.2565 13.0876 12.4084 12.7768 12.436 12.4433L13.0027 5.61133C13.019 5.43643 13.1037 5.27503 13.2383 5.16223C13.373 5.04942 13.5467 4.99432 13.7218 5.0089C13.8968 5.02348 14.0591 5.10657 14.1732 5.2401C14.2873 5.37362 14.3442 5.54681 14.3313 5.722L13.7647 12.5533C13.7095 13.2201 13.4057 13.8417 12.9136 14.2949C12.4215 14.7481 11.777 14.9998 11.108 15H6.89333C6.2241 15.0001 5.57929 14.7486 5.0869 14.2953C4.59451 13.8421 4.29055 13.2203 4.23533 12.5533L3.66867 5.722C3.66136 5.63471 3.67133 5.54683 3.698 5.46339C3.72468 5.37995 3.76753 5.30259 3.82412 5.23572C3.88071 5.16886 3.94992 5.1138 4.0278 5.07369C4.10568 5.03359 4.1907 5.00923 4.278 5.002Z" fill="#333333"/>
<path fill-rule="evenodd" clip-rule="evenodd" d="M3 5.66667C3 5.48986 3.07024 5.32029 3.19526 5.19526C3.32029 5.07024 3.48986 5 3.66667 5H14.3333C14.5101 5 14.6797 5.07024 14.8047 5.19526C14.9298 5.32029 15 5.48986 15 5.66667C15 5.84348 14.9298 6.01305 14.8047 6.13807C14.6797 6.2631 14.5101 6.33333 14.3333 6.33333H3.66667C3.48986 6.33333 3.32029 6.2631 3.19526 6.13807C3.07024 6.01305 3 5.84348 3 5.66667ZM7.66667 7C7.84348 7 8.01305 7.07024 8.13807 7.19526C8.2631 7.32029 8.33333 7.48986 8.33333 7.66667V11.6667C8.33333 11.8435 8.2631 12.013 8.13807 12.1381C8.01305 12.2631 7.84348 12.3333 7.66667 12.3333C7.48986 12.3333 7.32029 12.2631 7.19526 12.1381C7.07024 12.013 7 11.8435 7 11.6667V7.66667C7 7.48986 7.07024 7.32029 7.19526 7.19526C7.32029 7.07024 7.48986 7 7.66667 7ZM10.3333 7C10.5101 7 10.6797 7.07024 10.8047 7.19526C10.9298 7.32029 11 7.48986 11 7.66667V10.3333C11 10.5101 10.9298 10.6797 10.8047 10.8047C10.6797 10.9298 10.5101 11 10.3333 11C10.1565 11 9.98695 10.9298 9.86193 10.8047C9.7369 10.6797 9.66667 10.5101 9.66667 10.3333V7.66667C9.66667 7.48986 9.7369 7.32029 9.86193 7.19526C9.98695 7.07024 10.1565 7 10.3333 7Z" fill="#333333"/>
<path fill-rule="evenodd" clip-rule="evenodd" d="M7.96066 4.33333C7.8208 4.33344 7.68452 4.37753 7.57109 4.45937C7.45767 4.5412 7.37286 4.65664 7.32866 4.78933L6.966 5.87733C6.91013 6.04513 6.78989 6.18385 6.63173 6.26299C6.47357 6.34213 6.29046 6.35521 6.12266 6.29933C5.95487 6.24346 5.81614 6.12322 5.737 5.96507C5.65786 5.80691 5.64479 5.62379 5.70066 5.456L6.06333 4.36733C6.19611 3.96915 6.45079 3.62284 6.79131 3.37744C7.13183 3.13204 7.54093 2.99999 7.96066 3H10.0387C10.4584 2.99999 10.8675 3.13204 11.208 3.37744C11.5485 3.62284 11.8032 3.96915 11.936 4.36733L12.2993 5.456C12.327 5.53908 12.338 5.6268 12.3318 5.71415C12.3256 5.80149 12.3022 5.88675 12.263 5.96507C12.2238 6.04338 12.1696 6.1132 12.1034 6.17056C12.0372 6.22791 11.9604 6.27167 11.8773 6.29933C11.7942 6.327 11.7065 6.33803 11.6192 6.33179C11.5318 6.32556 11.4466 6.30218 11.3683 6.26299C11.2101 6.18385 11.0899 6.04513 11.034 5.87733L10.6713 4.78933C10.6272 4.65675 10.5425 4.54139 10.4292 4.45956C10.3159 4.37774 10.1797 4.33358 10.04 4.33333H7.962H7.96066Z" fill="#333333"/>
</svg>
