<svg width="18" height="18" viewBox="0 0 18 18" fill="none" xmlns="http://www.w3.org/2000/svg">
<path d="M3 13.5H11.25C11.6625 13.5 12 13.1625 12 12.75C12 12.3375 11.6625 12 11.25 12H3C2.5875 12 2.25 12.3375 2.25 12.75C2.25 13.1625 2.5875 13.5 3 13.5ZM3 9.75H9C9.4125 9.75 9.75 9.4125 9.75 9C9.75 8.5875 9.4125 8.25 9 8.25H3C2.5875 8.25 2.25 8.5875 2.25 9C2.25 9.4125 2.5875 9.75 3 9.75ZM2.25 5.25C2.25 5.6625 2.5875 6 3 6H11.25C11.6625 6 12 5.6625 12 5.25C12 4.8375 11.6625 4.5 11.25 4.5H3C2.5875 4.5 2.25 4.8375 2.25 5.25ZM15.225 11.16L13.065 9L15.225 6.84C15.2944 6.77056 15.3495 6.68813 15.3871 6.59741C15.4247 6.50668 15.444 6.40945 15.444 6.31125C15.444 6.21305 15.4247 6.11582 15.3871 6.02509C15.3495 5.93437 15.2944 5.85194 15.225 5.7825C15.1556 5.71306 15.0731 5.65798 14.9824 5.6204C14.8917 5.58283 14.7944 5.56348 14.6962 5.56348C14.5981 5.56348 14.5008 5.58283 14.4101 5.6204C14.3194 5.65798 14.2369 5.71306 14.1675 5.7825L11.475 8.475C11.4055 8.54439 11.3503 8.6268 11.3127 8.71753C11.275 8.80826 11.2557 8.90552 11.2557 9.00375C11.2557 9.10198 11.275 9.19924 11.3127 9.28997C11.3503 9.3807 11.4055 9.46311 11.475 9.5325L14.1675 12.225C14.46 12.5175 14.9325 12.5175 15.225 12.225C15.51 11.9325 15.5175 11.4525 15.225 11.16Z" fill="#333333"/>
</svg>
