<svg width="18" height="18" viewBox="0 0 18 18" fill="none" xmlns="http://www.w3.org/2000/svg">
<mask id="mask0_1_74" style="mask-type:luminance" maskUnits="userSpaceOnUse" x="2" y="2" width="14" height="14">
<path d="M2 2H16V16H2V2Z" fill="white"/>
</mask>
<g mask="url(#mask0_1_74)">
<path d="M8.77075 5.81208L4.233 10.3498C4.01429 10.5686 3.89142 10.8653 3.89142 11.1747C3.89142 11.484 4.01429 11.7807 4.233 11.9995L5.129 12.8955C5.34784 13.1141 5.64453 13.2368 5.95384 13.2368H9.59559M8.77075 5.81208L10.0074 4.57542C10.1158 4.46694 10.2444 4.38089 10.3861 4.32218C10.5277 4.26347 10.6795 4.23325 10.8328 4.23325C10.9862 4.23325 11.138 4.26347 11.2796 4.32218C11.4212 4.38089 11.5499 4.46694 11.6583 4.57542L14.1328 7.04992C14.3515 7.2687 14.4743 7.56539 14.4743 7.87475C14.4743 8.18411 14.3515 8.4808 14.1328 8.69958L12.8955 9.93742M8.77075 5.81208L12.8955 9.93742M9.59559 13.2368L12.8955 9.93742M9.59559 13.2368H13.6667" stroke="#333333" stroke-width="1.5" stroke-linecap="round" stroke-linejoin="round"/>
</g>
</svg>
