<svg width="18" height="18" viewBox="0 0 18 18" fill="none" xmlns="http://www.w3.org/2000/svg">
<mask id="mask0_1_74" style="mask-type:luminance" maskUnits="userSpaceOnUse" x="2" y="2" width="14" height="14">
<path d="M2 2H16V16H2V2Z" fill="white"/>
</mask>
<g mask="url(#mask0_1_74)">
<path d="M8.61058 5.57822L4.32277 10.1142C4.1161 10.3329 4 10.6295 4 10.9387C4 11.248 4.1161 11.5445 4.32277 11.7632L5.16942 12.6589C5.3762 12.8774 5.65654 13.0001 5.94882 13H9.38998M8.61058 5.57822L9.77913 4.34203C9.88151 4.2336 10.0031 4.14759 10.1369 4.0889C10.2708 4.03021 10.4142 4 10.5591 4C10.704 4 10.8474 4.03021 10.9812 4.0889C11.1151 4.14759 11.2366 4.2336 11.339 4.34203L13.6772 6.81557C13.8839 7.03427 14 7.33085 14 7.64009C14 7.94932 13.8839 8.2459 13.6772 8.4646L12.5081 9.70195M8.61058 5.57822L12.5081 9.70195M9.38998 13L12.5081 9.70195M9.38998 13H13.2368" stroke="#333333" stroke-linecap="round" stroke-linejoin="round"/>
</g>
</svg>
